# xmcd
#
# Track frame offsets: 
#        183
#        13583
#        26200
#        40148
#        52265
#        63653
#        77340
#        88785
#        99860
#        111338
#        128328
#        146073
#        156260
#        172930
#        185028
#        200135
#
# Disc length: 2847 seconds
#
# Revision: 2
# Processed by: cddbd v1.5.2PL0 Copyright (c) Steve Scherf et al.
# Submitted via: ExactAudioCopy v1.0b3
#
DISCID=dc0b1d10
DTITLE=Glen Campbell - Country Classics
DYEAR=1991
DGENRE=Country
TTITLE0=Gentle on my mind (1967)
TTITLE1=I wanna live (1968)
TTITLE2=Wichita lineman (1968)
TTITLE3=Galvestone (1969)
TTITLE4=True Grit (1969)
TTITLE5=Honey come back (1970)
TTITLE6=Everything a man could ever need (1970)
TTITLE7=It's only make believe (1970)
TTITLE8=Dream baby (how long must I dream) (1971)
TTITLE9=If you could read my mind (1971)
TTITLE10=The last thing on my mind (1972)
TTITLE11=Someday soon (1966)
TTITLE12=You win again (1973)
TTITLE13=I can't help it (if I'm still in love with you) (1973)
TTITLE14=Don't pull your love and Then you can tell me goodbye (1976)
TTITLE15=Southern nights (1977)
EXTD=YEAR: 1991
EXTT0=
EXTT1=
EXTT2=
EXTT3=
EXTT4=
EXTT5=
EXTT6=
EXTT7=
EXTT8=
EXTT9=
EXTT10=
EXTT11=
EXTT12=
EXTT13=
EXTT14=
EXTT15=
PLAYORDER=
